#!OML:ASF F:\VICON\USERDATA\INSTALL\rory3\rory3.ASF
:FULLY-SPECIFIED
:DEGREES
31
root 0.4638499682996956 17.719222094392055 8.805286349087764 5.74444886423898 4.044202625957481 -2.073142417419013
lfemur -27.862364505546267 -1.6014396271947073 -16.637249964546854
ltibia 21.873624819181547
lfoot 7.125812524212699 -14.836299624297412
ltoes -21.01073802744493
rfemur -5.207054488437402 5.744191455575717 33.108204150092305
rtibia 65.4765908000816
rfoot 4.949231732650605 1.2330676031394976
rtoes 4.2025911896356885
lowerback -8.881784189112644e-10 0.4404084924302556 2.395502779304273
upperback -0.6217805966573922 3.068450404559284 0.5522049019505022
thorax -7.492871363458654 1.3814798131132338 -2.379575515785515
lowerneck -20.111979334293423 -4.737195805313477 -1.7426821776368147
upperneck 13.570074130869543 -9.724476082397464 5.270942108386645
head 8.779996045936011 -3.848802981807724 0.9507776316120331
lclavicle 1.1841165891527157e-09 -5.449180446324528e-07
lhumerus -62.595776422233875 -4.099527021381293 97.68277250582084
lradius 107.07913442295444
lwrist 44.67009142689185
lhand -17.451875990567693 6.455029478565605
lfingers nan
lthumb 8.679603386686127 36.06450309724289
rclavicle 9.805540591467018e-08 -4.4027634404323954e-07
rhumerus -32.904403738808206 23.420430810734977 -104.18514626508522
rradius 114.01903858143298
rwrist -10.65667215108161
rhand -25.469340347250263 -8.881784189112644e-10
rfingers nan
rthumb 0.04685112852723676 36.786743936429936
32
root 0.4678390509071426 17.718540708571716 7.50763185471593 5.57319376458572 4.03064931096627 -1.5937630793957183
lfemur -24.396033460015442 -2.679074491052763 -17.893068498263585
ltibia 10.369867937322283
lfoot 6.492246424557103 -13.77856214835314
ltoes -17.873888327806796
rfemur -9.936658276793326 6.622681449521522 30.133070486090492
rtibia 81.940477366377
rfoot 18.45837514451174 5.263718067440624
rtoes 5.907352766680573
lowerback -8.881784189112644e-10 0.34140404506350924 1.26414650884887
upperback -1.0132229219387865 2.5044330338618046 -0.3054789862197843
thorax -7.185482833090838 1.1264931054242187 -1.8587975468747353
lowerneck -19.630412345880362 -4.990491678589265 -1.723065702082245
upperneck 14.142465246506974 -9.730219778143692 5.194180473884858
head 8.848601972463092 -3.7323305398868842 0.9405723323373065
lclavicle -5.303535478961224e-09 -5.665983616342475e-07
lhumerus -65.5202699412546 -3.3532993220022784 96.93970145362616
lradius 105.11836991217226
lwrist 44.825649239413934
lhand -17.197760093256434 6.521027942881261
lfingers nan
lthumb 8.7225202923595 36.11166159248144
rclavicle 4.5615831461053e-08 -5.02729065392777e-07
rhumerus -32.5129911926272 22.962374398408635 -104.13920473594602
rradius 113.76958738782068
rwrist -6.373309476462774
rhand -25.66057110107393 -8.881784189112644e-10
rfingers nan
rthumb 0.719610006250862 36.144922528407406
33
root 0.4703832305082342 17.798531503082952 7.8901320159724735 5.153864100600061 4.3625052321748 -0.8233436551690951
lfemur -17.627299211450545 -0.8413749130401184 -23.718643658682737
ltibia 5.574186753841197
lfoot 10.685421985690635 -16.113163064667898
ltoes -17.748314630119303
rfemur -18.60289532149316 4.382553215566366 25.281924739619143
rtibia 98.46576466124203
rfoot 31.30376012697164 7.709127840107263
rtoes 6.114541219585295
lowerback -8.881784189112644e-10 0.4727474868884812 -1.4259066011650126
upperback -0.8947789713481433 1.9374042492924848 -1.3000638681341221
thorax -7.009784806953425 0.8030328377379984 -1.352476860997995
lowerneck -19.2316649214057 -5.033357786607133 -1.7761391830198572
upperneck 14.369249430704762 -9.195944046448457 4.621684841026606
head 8.539577478585498 -3.3950452209622584 0.8517016452730777
lclavicle 8.176820598678238e-08 -4.867076545516571e-07
lhumerus -66.82881355242728 -2.550379719725905 96.06461604280798
lradius 104.02046079670066
lwrist 44.785634712361684
lhand -17.453993370918834 6.841884701769265
lfingers nan
lthumb 8.473364693718016 36.61579030914933
rclavicle -1.324128473335115e-08 -6.699671953880683e-07
rhumerus -33.01940615504683 22.529593495490182 -104.07103967549656
rradius 112.60681946997732
rwrist -1.6759438384371919
rhand -25.789724920999042 -8.881784189112644e-10
rfingers nan
rthumb 0.7168344484114387 33.50074531213199
34
root 0.44514074875791637 17.8666054745135 6.679239735119159 4.647213553867608 3.531391699995354 -1.532128541480529
lfemur -14.392141467415932 -1.1418441461555222 -28.63746946884394
ltibia 4.147710387304613
lfoot 15.072921964727119 -18.953157974824773
ltoes -14.522068972629372
rfemur -24.662115999577 0.21985752920016433 21.58992293530156
rtibia 108.2823396492061
rfoot 31.04488281376588 5.437731134867339
rtoes 3.8956144099681045
lowerback -8.881784189112644e-10 0.427040321693027 -3.844158540967892
upperback -0.5824318004837572 1.280326491418912 -1.7705273353330102
thorax -6.9693244882059915 0.4439662944516738 -0.8230755510611947
lowerneck -19.29064615173056 -5.133453023772716 -1.8960252409728087
upperneck 14.49173559910716 -8.588026132108403 4.512537189515896
head 8.474243444811709 -3.1565204212852174 0.8834113053162133
lclavicle 8.791363123176644e-08 -3.807511401795858e-07
lhumerus -67.8871065796422 -1.754829880374361 95.20589350121536
lradius 102.69870913416544
lwrist 43.30140764794883
lhand -18.000951021410682 6.560288522814909
lfingers nan
lthumb 8.597403959169432 36.67493277471198
rclavicle 1.5164085786087792e-07 -5.286442271812136e-07
rhumerus -34.71231840769614 21.884172827921805 -104.07303148163821
rradius 110.30555721951684
rwrist -0.19777817585694635
rhand -26.62408499549341 -8.881784189112644e-10
rfingers nan
rthumb 1.7154376483687814 33.78091930410399
